# xmcd
#
# Track frame offsets: 
#        150
#        14032
#        28582
#        42932
#        58207
#        73357
#        87635
#        102982
#        117457
#        131207
#        145095
#        159412
#        172840
#        185910
#
# Disc length: 2645 seconds
#
# Revision: 9
# Processed by: cddbd v1.5.2PL0 Copyright (c) Steve Scherf et al.
# Submitted via: ExactAudioCopyFreeDBPlugin 1.0
#
DISCID=d60a530e
DTITLE=Blind Willie Johnson - The Complete Blind Willie Johnson [Disc 
DTITLE=1]
DYEAR=1993
DGENRE=Blues
TTITLE0=I Know His Blood Can Make Me Whole
TTITLE1=Jesus Make Up My Dying Bed
TTITLE2=It's Nobody's Fault but Mine
TTITLE3=Mother's Children Have a Hard Time
TTITLE4=Dark Was the Night, Cold Was the Ground
TTITLE5=If I Had My Way I'd Tear the Building Down
TTITLE6=I'm Gonna Run to the City of Refuge
TTITLE7=Jesus Is Coming Soon
TTITLE8=Lord I Just Can't Keep from Crying
TTITLE9=Keep Your Lamp Trimmed and Burning
TTITLE10=Let Your Light Shine on Me
TTITLE11=God Don't Never Change
TTITLE12=Bye and Bye I'm Goin' to See the King
TTITLE13=Sweeter as the Years Roll By
EXTD=YEAR: 1993
EXTT0=
EXTT1=
EXTT2=
EXTT3=
EXTT4=
EXTT5=
EXTT6=
EXTT7=
EXTT8=
EXTT9=
EXTT10=
EXTT11=
EXTT12=
EXTT13=
PLAYORDER=
